{
  "accessors": [
    {
      "bufferView": 2,
      "componentType": 5126,
      "count": 4495,
      "max": [
        1.5881550312042236,
        1.2871090173721313,
        3.4943370819091797
      ],
      "min": [
        -1.272678017616272,
        -1.6597650051116943,
        0.2299710065126419
      ],
      "type": "VEC3"
    },
    {
      "bufferView": 2,
      "byteOffset": 53940,
      "componentType": 5126,
      "count": 4495,
      "max": [
        1.0,
        1.0,
        1.0
      ],
      "min": [
        -1.0,
        -1.0,
        -1.0
      ],
      "type": "VEC3"
    },
    {
      "bufferView": 1,
      "componentType": 5126,
      "count": 4495,
      "max": [
        0.9995459914207458,
        0.9986630082130432
      ],
      "min": [
        0.00045399999362416565,
        0.00045399999362416565
      ],
      "type": "VEC2"
    },
    {
      "bufferView": 0,
      "componentType": 5125,
      "count": 22836,
      "type": "SCALAR"
    },
    {
      "bufferView": 2,
      "byteOffset": 107880,
      "componentType": 5126,
      "count": 4495,
      "max": [
        1.6081169843673706,
        1.316735029220581,
        3.5243210792541504
      ],
      "min": [
        -1.3020600080490112,
        -1.6794439554214478,
        0.20997199416160583
      ],
      "type": "VEC3"
    },
    {
      "bufferView": 2,
      "byteOffset": 161820,
      "componentType": 5126,
      "count": 4495,
      "max": [
        1.0,
        1.0,
        1.0
      ],
      "min": [
        -1.0,
        -1.0,
        -1.0
      ],
      "type": "VEC3"
    },
    {
      "bufferView": 1,
      "byteOffset": 35960,
      "componentType": 5126,
      "count": 4495,
      "max": [
        0.9995459914207458,
        0.9986630082130432
      ],
      "min": [
        0.00045399999362416565,
        0.00045399999362416565
      ],
      "type": "VEC2"
    },
    {
      "bufferView": 0,
      "byteOffset": 91344,
      "componentType": 5125,
      "count": 22836,
      "type": "SCALAR"
    }
  ],
  "asset": {
    "extras": {
      "author": "LiliumLetifer (https://sketchfab.com/LiliumLetifer)",
      "license": "CC-BY-4.0 (http://creativecommons.org/licenses/by/4.0/)",
      "source": "https://sketchfab.com/3d-models/mushrooms-on-a-log-14624486cfad4e599350b6ce4f323722",
      "title": "Mushrooms On A Log"
    },
    "generator": "Sketchfab-15.53.0",
    "version": "2.0"
  },
  "bufferViews": [
    {
      "buffer": 0,
      "byteLength": 182688,
      "name": "floatBufferViews",
      "target": 34963
    },
    {
      "buffer": 0,
      "byteLength": 71920,
      "byteOffset": 182688,
      "byteStride": 8,
      "name": "floatBufferViews",
      "target": 34962
    },
    {
      "buffer": 0,
      "byteLength": 215760,
      "byteOffset": 254608,
      "byteStride": 12,
      "name": "floatBufferViews",
      "target": 34962
    }
  ],
  "buffers": [
    {
      "byteLength": 470368,
      "uri": "scene.bin"
    }
  ],
  "extensionsUsed": [
    "KHR_materials_unlit"
  ],
  "images": [
    {
      "uri": "textures/Principal_baseColor.png"
    }
  ],
  "materials": [
    {
      "extensions": {
        "KHR_materials_unlit": {}
      },
      "name": "Outline",
      "pbrMetallicRoughness": {
        "baseColorFactor": [
          0.11953842798834559,
          0.0202885630566524,
          0.01520851442291271,
          1.0
        ],
        "metallicFactor": 0.0
      }
    },
    {
      "doubleSided": true,
      "extensions": {
        "KHR_materials_unlit": {}
      },
      "name": "Principal",
      "pbrMetallicRoughness": {
        "baseColorTexture": {
          "index": 0
        },
        "metallicFactor": 0.0
      }
    }
  ],
  "meshes": [
    {
      "name": "Object_0",
      "primitives": [
        {
          "attributes": {
            "NORMAL": 1,
            "POSITION": 0,
            "TEXCOORD_0": 2
          },
          "indices": 3,
          "material": 1,
          "mode": 4
        }
      ]
    },
    {
      "name": "Object_1",
      "primitives": [
        {
          "attributes": {
            "NORMAL": 5,
            "POSITION": 4,
            "TEXCOORD_0": 6
          },
          "indices": 7,
          "material": 0,
          "mode": 4
        }
      ]
    }
  ],
  "nodes": [
    {
      "children": [
        1
      ],
      "matrix": [
        0.47338545322418213,
        0.0,
        0.0,
        0.0,
        0.0,
        1.0511268593842041e-16,
        -0.47338545322418213,
        0.0,
        0.0,
        0.47338545322418213,
        1.0511268593842041e-16,
        0.0,
        0.0,
        0.0,
        0.0,
        1.0
      ],
      "name": "Sketchfab_model"
    },
    {
      "children": [
        2,
        3
      ],
      "name": "Mushrooms.obj.cleaner.materialmerger.gles"
    },
    {
      "mesh": 0,
      "name": "Object_2"
    },
    {
      "mesh": 1,
      "name": "Object_3"
    }
  ],
  "samplers": [
    {
      "magFilter": 9729,
      "minFilter": 9987,
      "wrapS": 10497,
      "wrapT": 10497
    }
  ],
  "scene": 0,
  "scenes": [
    {
      "name": "Sketchfab_Scene",
      "nodes": [
        0
      ]
    }
  ],
  "textures": [
    {
      "sampler": 0,
      "source": 0
    }
  ]
}
